<?xml version="1.0" encoding="UTF-8" standalone="no"?>
<!-- Created with Inkscape (http://www.inkscape.org/) -->

<svg
   width="145.52083mm"
   height="34.395836mm"
   viewBox="0 0 145.52083 34.395836"
   version="1.1"
   id="svg1"
   xml:space="preserve"
   inkscape:export-filename="head.png"
   inkscape:export-xdpi="122"
   inkscape:export-ydpi="122"
   inkscape:version="1.3.2 (091e20e, 2023-11-25, custom)"
   sodipodi:docname="head.svg"
   xmlns:inkscape="http://www.inkscape.org/namespaces/inkscape"
   xmlns:sodipodi="http://sodipodi.sourceforge.net/DTD/sodipodi-0.dtd"
   xmlns="http://www.w3.org/2000/svg"
   xmlns:svg="http://www.w3.org/2000/svg"><sodipodi:namedview
     id="namedview1"
     pagecolor="#ffffff"
     bordercolor="#000000"
     borderopacity="0.25"
     inkscape:showpageshadow="2"
     inkscape:pageopacity="0.0"
     inkscape:pagecheckerboard="0"
     inkscape:deskcolor="#d1d1d1"
     inkscape:document-units="mm"
     showgrid="true"
     inkscape:zoom="1.1467095"
     inkscape:cx="420.33315"
     inkscape:cy="61.480263"
     inkscape:window-width="1366"
     inkscape:window-height="745"
     inkscape:window-x="-8"
     inkscape:window-y="-8"
     inkscape:window-maximized="1"
     inkscape:current-layer="layer1"><inkscape:grid
       id="grid11"
       units="px"
       originx="-26.458331"
       originy="-7.9375002"
       spacingx="0.26458333"
       spacingy="0.26458334"
       empcolor="#0099e5"
       empopacity="0.30196078"
       color="#0099e5"
       opacity="0.14901961"
       empspacing="5"
       dotted="false"
       gridanglex="30"
       gridanglez="30"
       visible="true" /></sodipodi:namedview><defs
     id="defs1"><rect
       x="200.64877"
       y="213.54762"
       width="354.00177"
       height="136.87112"
       id="rect11" /><rect
       x="200.64877"
       y="213.54762"
       width="354.00177"
       height="136.87112"
       id="rect16" /><rect
       x="200.64877"
       y="213.54762"
       width="354.00177"
       height="136.87112"
       id="rect18" /></defs><g
     inkscape:label="Layer 1"
     inkscape:groupmode="layer"
     id="layer1"
     transform="translate(-26.458332,-7.9375005)"><path
       id="rect17"
       style="fill:#f8df1e;stroke-width:1.4;stroke-linecap:round;stroke-linejoin:round;paint-order:fill markers stroke"
       d="M 26.458332,7.9375005 H 171.97916 V 42.333336 H 26.458332 Z" /><path
       id="path17"
       style="fill:#1a1a1a;stroke-width:0.163029"
       d="M 74.277119 13.423987 A 0.40004001 0.40004001 0 0 0 73.877143 13.822413 L 73.877143 25.183476 A 0.40004001 0.40004001 0 0 0 74.277119 25.583969 L 86.54097 25.583969 L 98.80482 25.583969 L 111.06815 25.583969 A 0.40004001 0.40004001 0 0 0 111.46865 25.183476 L 111.46865 13.822413 A 0.40004001 0.40004001 0 0 0 111.06815 13.423987 L 98.80482 13.423987 L 86.54097 13.423987 L 74.277119 13.423987 z M 160.90232 13.462745 C 160.72286 13.462745 160.57199 13.523838 160.44964 13.646196 C 160.33544 13.760397 160.27807 13.90702 160.27807 14.086479 L 160.27807 25.25789 C 160.27807 25.43735 160.33544 25.583972 160.44964 25.698174 C 160.57199 25.82053 160.72286 25.882142 160.90232 25.882142 C 161.08994 25.882142 161.24081 25.82053 161.35501 25.698174 C 161.46921 25.583972 161.52606 25.43735 161.52606 25.25789 L 161.52606 14.086479 C 161.52606 13.90702 161.46921 13.760397 161.35501 13.646196 C 161.24081 13.523838 161.08994 13.462745 160.90232 13.462745 z M 165.83949 13.462745 C 165.66003 13.462745 165.50916 13.523838 165.3868 13.646196 C 165.2726 13.760397 165.21524 13.90702 165.21524 14.086479 L 165.21524 25.25789 C 165.21524 25.43735 165.2726 25.583972 165.3868 25.698174 C 165.50916 25.82053 165.66003 25.882142 165.83949 25.882142 C 166.0271 25.882142 166.17797 25.82053 166.29217 25.698174 C 166.40638 25.583972 166.46322 25.43735 166.46322 25.25789 L 166.46322 14.086479 C 166.46322 13.90702 166.40638 13.760397 166.29217 13.646196 C 166.17797 13.523838 166.0271 13.462745 165.83949 13.462745 z M 140.65136 14.111284 C 140.529 14.111284 140.41479 14.144211 140.30875 14.209469 C 140.2027 14.274726 140.12515 14.364502 140.0762 14.478703 L 136.39322 23.692094 C 136.30349 23.912339 136.31571 24.112083 136.42991 24.291541 C 136.55227 24.479157 136.72758 24.573178 136.95598 24.573178 C 137.07018 24.573178 137.18067 24.544495 137.28671 24.487395 C 137.40091 24.430295 137.4822 24.336273 137.53114 24.205758 L 141.21412 14.992367 C 141.30385 14.755808 141.28365 14.551819 141.15314 14.380518 C 141.03078 14.201059 140.86345 14.111284 140.65136 14.111284 z M 154.95488 14.111284 C 154.83252 14.111284 154.71831 14.144211 154.61227 14.209469 C 154.50622 14.274726 154.42867 14.364502 154.37972 14.478703 L 150.69674 23.692094 C 150.60701 23.912339 150.61923 24.112083 150.73343 24.291541 C 150.85579 24.479157 151.0311 24.573178 151.2595 24.573178 C 151.3737 24.573178 151.48419 24.544495 151.59023 24.487395 C 151.70443 24.430295 151.78572 24.336273 151.83466 24.205758 L 155.51764 14.992367 C 155.60737 14.755808 155.58717 14.551819 155.45666 14.380518 C 155.3343 14.201059 155.16697 14.111284 154.95488 14.111284 z M 74.677611 14.222905 L 86.140477 14.222905 L 86.140477 24.782984 L 74.677611 24.782984 L 74.677611 14.222905 z M 86.941462 14.222905 L 98.404328 14.222905 L 98.404328 24.782984 L 86.941462 24.782984 L 86.941462 14.222905 z M 99.205313 14.222905 L 110.66818 14.222905 L 110.66818 24.782984 L 99.205313 24.782984 L 99.205313 14.222905 z M 36.279955 14.478703 C 36.173911 14.478703 36.076161 14.503141 35.986433 14.552084 C 35.904861 14.601027 35.831549 14.666366 35.766291 14.747938 L 31.079755 20.890198 C 30.990026 21.012556 30.949125 21.151207 30.957282 21.306194 C 30.973597 21.453022 31.035207 21.5837 31.14125 21.697901 C 31.247294 21.812102 31.393919 21.86895 31.581533 21.86895 L 35.65622 21.86895 L 35.65622 23.410975 C 35.65622 23.582275 35.713068 23.7289 35.827269 23.851258 C 35.94147 23.973616 36.080122 24.034709 36.243264 24.034709 C 36.422723 24.034709 36.569865 23.973616 36.684064 23.851258 C 36.798265 23.7289 36.855113 23.582275 36.855113 23.410975 L 36.855113 21.86895 L 37.589436 21.86895 C 37.760736 21.86895 37.907361 21.81583 38.029719 21.709786 C 38.152077 21.595587 38.21317 21.461179 38.21317 21.306194 C 38.21317 21.094106 38.152077 20.947482 38.029719 20.86591 C 37.907361 20.784338 37.760736 20.743437 37.589436 20.743437 L 36.855113 20.743437 L 36.855113 15.11484 C 36.855113 14.935382 36.801994 14.784513 36.69595 14.662155 C 36.589906 14.539797 36.451256 14.478703 36.279955 14.478703 z M 41.82897 14.478703 C 41.796341 14.478703 41.759685 14.482432 41.718899 14.490589 C 41.678113 14.498746 41.637212 14.511482 41.596426 14.527796 L 39.688015 15.212509 C 39.549344 15.261452 39.447349 15.339009 39.382091 15.445053 C 39.316833 15.551095 39.283906 15.669555 39.283906 15.80007 C 39.283906 15.979527 39.341272 16.126152 39.455471 16.240353 C 39.577829 16.354554 39.728699 16.411919 39.908157 16.411919 C 40.030515 16.411919 40.160675 16.383236 40.299348 16.326136 L 41.192833 15.946831 L 41.192833 23.410975 C 41.192833 23.582275 41.253928 23.7289 41.376284 23.851258 C 41.498642 23.973616 41.641538 24.034709 41.804682 24.034709 C 41.98414 24.034709 42.13501 23.973616 42.257368 23.851258 C 42.379726 23.7289 42.440819 23.582275 42.440819 23.410975 L 42.440819 15.11484 C 42.440819 14.927225 42.383971 14.776355 42.26977 14.662155 C 42.163726 14.539797 42.016586 14.478703 41.82897 14.478703 z M 47.500458 14.478703 C 46.953927 14.478703 46.460416 14.605136 46.019929 14.858008 C 45.587597 15.110881 45.244958 15.45725 44.992084 15.897738 C 44.739212 16.33007 44.612779 16.823578 44.612779 17.378268 C 44.612779 17.541412 44.673873 17.684308 44.796231 17.806666 C 44.918589 17.929023 45.065213 17.990117 45.236514 17.990117 C 45.415972 17.990117 45.563113 17.929023 45.677314 17.806666 C 45.799672 17.684308 45.860765 17.541412 45.860765 17.378268 C 45.860765 17.060137 45.929832 16.770617 46.068505 16.509587 C 46.215333 16.2404 46.41135 16.028437 46.656066 15.87345 C 46.908938 15.710306 47.190486 15.629021 47.500458 15.629021 C 47.818589 15.629021 48.091645 15.702333 48.320047 15.849162 C 48.548447 15.987835 48.723755 16.187579 48.846113 16.448609 C 48.968471 16.709639 49.029564 17.019351 49.029564 17.378268 C 49.029564 17.606669 48.960497 17.847315 48.821825 18.100188 C 48.69131 18.35306 48.503784 18.622389 48.259068 18.90789 L 44.783828 22.970175 C 44.669629 23.084375 44.612779 23.231516 44.612779 23.410975 C 44.612779 23.582275 44.669629 23.7289 44.783828 23.851258 C 44.906186 23.973616 45.057056 24.034709 45.236514 24.034709 L 49.763886 24.034709 C 49.943345 24.034709 50.094214 23.973616 50.216572 23.851258 C 50.33893 23.7289 50.400023 23.582275 50.400023 23.410975 C 50.400023 23.247831 50.33893 23.104935 50.216572 22.982577 C 50.094214 22.852062 49.943345 22.786723 49.763886 22.786723 L 46.337739 22.786723 L 49.140152 19.605522 C 49.311452 19.409749 49.478269 19.189296 49.641413 18.944581 C 49.812714 18.699865 49.951365 18.442756 50.057408 18.173568 C 50.171609 17.904381 50.228974 17.639298 50.228974 17.378268 C 50.228974 16.782793 50.114761 16.269091 49.886359 15.83676 C 49.666116 15.404428 49.352158 15.069761 48.944298 14.833204 C 48.536438 14.596645 48.055148 14.478703 47.500458 14.478703 z M 65.415127 14.910202 A 0.69999999 0.69999999 0 0 0 64.920067 15.115357 A 0.69999999 0.69999999 0 0 0 64.922134 16.105477 L 67.377281 18.556491 L 54.660228 18.556491 A 0.69999999 0.69999999 0 0 0 53.958979 19.255673 A 0.69999999 0.69999999 0 0 0 54.660228 19.956922 L 67.377281 19.956922 L 64.921617 22.408452 A 0.69999999 0.69999999 0 0 0 64.920067 23.396505 A 0.69999999 0.69999999 0 0 0 65.910187 23.398572 L 69.561127 19.754867 L 69.564228 19.751766 A 0.69999999 0.69999999 0 0 0 69.566295 19.749699 A 0.69999999 0.69999999 0 0 0 69.608153 19.704224 A 0.69999999 0.69999999 0 0 0 69.616938 19.692339 A 0.69999999 0.69999999 0 0 0 69.635541 19.668051 A 0.69999999 0.69999999 0 0 0 69.668098 19.618441 A 0.69999999 0.69999999 0 0 0 69.678433 19.602422 A 0.69999999 0.69999999 0 0 0 69.71409 19.529041 A 0.69999999 0.69999999 0 0 0 69.720808 19.511471 A 0.69999999 0.69999999 0 0 0 69.73321 19.479432 A 0.69999999 0.69999999 0 0 0 69.741478 19.450493 A 0.69999999 0.69999999 0 0 0 69.747679 19.429822 A 0.69999999 0.69999999 0 0 0 69.763699 19.34714 A 0.69999999 0.69999999 0 0 0 69.768867 19.289262 A 0.69999999 0.69999999 0 0 0 69.768867 19.263941 A 0.69999999 0.69999999 0 0 0 69.769383 19.255673 A 0.69999999 0.69999999 0 0 0 69.768867 19.253089 A 0.69999999 0.69999999 0 0 0 69.768867 19.224667 A 0.69999999 0.69999999 0 0 0 69.73321 19.034498 A 0.69999999 0.69999999 0 0 0 69.716673 18.992123 A 0.69999999 0.69999999 0 0 0 69.714606 18.986438 A 0.69999999 0.69999999 0 0 0 69.64691 18.860865 A 0.69999999 0.69999999 0 0 0 69.564745 18.761646 A 0.69999999 0.69999999 0 0 0 69.564228 18.761646 L 69.563194 18.760612 L 65.910187 15.115357 A 0.69999999 0.69999999 0 0 0 65.415127 14.910202 z M 126.27033 14.910202 A 0.69999999 0.69999999 0 0 0 125.77527 15.115357 A 0.69999999 0.69999999 0 0 0 125.77527 16.105477 L 128.23196 18.556491 L 115.51388 18.556491 A 0.69999999 0.69999999 0 0 0 114.8147 19.255673 A 0.69999999 0.69999999 0 0 0 115.51388 19.956922 L 128.23196 19.956922 L 125.77527 22.408452 A 0.69999999 0.69999999 0 0 0 125.77527 23.396505 A 0.69999999 0.69999999 0 0 0 126.76539 23.398572 L 130.41116 19.758484 A 0.69999999 0.69999999 0 0 0 130.41994 19.751766 A 0.69999999 0.69999999 0 0 0 130.61735 19.353858 A 0.69999999 0.69999999 0 0 0 130.61735 19.353341 A 0.69999999 0.69999999 0 0 0 130.62355 19.289779 A 0.69999999 0.69999999 0 0 0 130.41994 18.761646 A 0.69999999 0.69999999 0 0 0 130.41116 18.754928 L 126.76539 15.115357 A 0.69999999 0.69999999 0 0 0 126.27033 14.910202 z M 106.10257 15.554607 A 0.4721365 0.4721365 0 0 0 105.63024 16.027446 L 105.63024 23.378935 A 0.4721365 0.4721365 0 0 0 106.10257 23.851775 A 0.4721365 0.4721365 0 0 0 106.57541 23.378935 L 106.57541 16.027446 A 0.4721365 0.4721365 0 0 0 106.10257 15.554607 z M 108.26678 15.554607 A 0.4721365 0.4721365 0 0 0 107.79394 16.027446 L 107.79394 23.378935 A 0.4721365 0.4721365 0 0 0 108.26678 23.851775 A 0.4721365 0.4721365 0 0 0 108.73755 23.378935 L 108.73755 16.027446 A 0.4721365 0.4721365 0 0 0 108.26678 15.554607 z M 92.638789 15.615585 A 0.27544055 0.27544055 0 0 0 92.619668 15.619719 A 0.27541301 0.27541301 0 0 0 92.540603 15.637806 A 0.27544055 0.27544055 0 0 0 92.519416 15.642457 C 92.519416 15.642457 92.489109 15.6597 92.487377 15.660543 A 0.27541301 0.27541301 0 0 0 92.480659 15.664161 C 92.422457 15.692561 91.74051 16.028336 91.023383 16.658415 C 90.275249 17.315746 89.494278 18.29435 89.494278 19.548678 C 89.494278 20.803006 90.275249 21.782127 91.023383 22.439458 C 91.771522 23.096785 92.519416 23.456967 92.519416 23.456967 A 0.27544055 0.27544055 0 0 0 92.522 23.456967 A 0.27541301 0.27541301 0 0 0 92.742141 23.464718 A 0.27541301 0.27541301 0 0 0 92.757644 23.456967 A 0.27541301 0.27541301 0 0 0 92.7902 23.43888 C 92.83954 23.414838 93.533555 23.073989 94.255744 22.439458 C 95.003878 21.782127 95.783299 20.803006 95.783299 19.548678 C 95.783299 18.29435 95.003878 17.315746 94.255744 16.658415 C 93.532272 16.022757 92.835675 15.682312 92.78865 15.65951 A 0.27541301 0.27541301 0 0 0 92.757644 15.642457 A 0.27541301 0.27541301 0 0 0 92.689431 15.619202 A 0.27541301 0.27541301 0 0 0 92.656359 15.619719 A 0.27544055 0.27544055 0 0 0 92.638789 15.615585 z M 92.839293 16.33182 C 93.055686 16.446484 93.411659 16.649904 93.892459 17.072343 C 94.578804 17.675384 95.232429 18.525657 95.232429 19.548678 C 95.232429 20.571699 94.578804 21.422491 93.892459 22.025529 C 93.369904 22.484659 92.977567 22.698326 92.781932 22.799126 C 92.151232 20.930384 92.415225 18.698862 92.839293 16.33182 z M 92.260517 16.431039 C 92.139215 17.119424 92.031219 17.801782 91.956143 18.472775 L 90.289578 18.472775 C 90.541943 17.921809 90.958245 17.448765 91.386669 17.072343 C 91.737874 16.763767 92.030366 16.568562 92.260517 16.431039 z M 102.51829 16.536459 A 0.98112071 0.90880978 0 0 0 101.53695 17.444931 A 0.98112071 0.90880978 0 0 0 102.51829 18.353919 A 0.98112071 0.90880978 0 0 0 103.49911 17.444931 A 0.98112071 0.90880978 0 0 0 102.51829 16.536459 z M 35.65622 16.690971 L 35.65622 20.743437 L 32.576305 20.743437 L 35.65622 16.690971 z M 145.90634 16.925582 C 145.24561 16.925582 144.66284 17.072726 144.15709 17.366382 C 143.65135 17.651885 143.25134 18.051372 142.95768 18.565276 C 142.67218 19.07102 142.52928 19.658553 142.52928 20.327442 C 142.52928 20.988174 142.67218 21.575189 142.95768 22.089091 C 143.25134 22.594837 143.65135 22.994845 144.15709 23.288501 C 144.66284 23.574004 145.24561 23.716382 145.90634 23.716382 C 146.56707 23.716382 147.15036 23.574004 147.6561 23.288501 C 148.16185 22.994845 148.55761 22.594837 148.84311 22.089091 C 149.12861 21.575189 149.27151 20.988174 149.27151 20.327442 C 149.27151 19.658553 149.12437 19.07102 148.83071 18.565276 C 148.54521 18.051372 148.14996 17.651885 147.64422 17.366382 C 147.13847 17.072726 146.55891 16.925582 145.90634 16.925582 z M 157.20022 16.974675 C 156.97182 16.974675 156.77208 17.060206 156.60078 17.231507 C 156.43763 17.394651 156.35583 17.594395 156.35583 17.830953 C 156.35583 18.059354 156.43763 18.259616 156.60078 18.430917 C 156.77208 18.59406 156.97182 18.675346 157.20022 18.675346 C 157.43678 18.675346 157.63652 18.59406 157.79967 18.430917 C 157.96281 18.259616 158.04462 18.059354 158.04462 17.830953 C 158.04462 17.594395 157.96281 17.394651 157.79967 17.231507 C 157.63652 17.060206 157.43678 16.974675 157.20022 16.974675 z M 145.90634 18.026807 C 146.33051 18.026807 146.70608 18.124557 147.03237 18.320329 C 147.35866 18.516102 147.61152 18.789675 147.79098 19.140434 C 147.97859 19.483035 148.0721 19.878797 148.0721 20.327442 C 148.0721 20.776086 147.97859 21.17133 147.79098 21.513933 C 147.61152 21.856534 147.35866 22.125864 147.03237 22.321635 C 146.70608 22.517408 146.33051 22.615158 145.90634 22.615158 C 145.48216 22.615158 145.10711 22.517408 144.78083 22.321635 C 144.45454 22.125864 144.19743 21.856534 144.00981 21.513933 C 143.8222 21.17133 143.72869 20.776086 143.72869 20.327442 C 143.72869 19.878797 143.8222 19.483035 144.00981 19.140434 C 144.19743 18.789675 144.45454 18.516102 144.78083 18.320329 C 145.10711 18.124557 145.48216 18.026807 145.90634 18.026807 z M 80.011136 18.313095 A 1.136 1.1360122 0 0 0 78.875288 19.448943 A 1.136 1.1360122 0 0 0 80.011136 20.584791 A 1.136 1.1360122 0 0 0 81.146984 19.448943 A 1.136 1.1360122 0 0 0 80.011136 18.313095 z M 90.109744 19.023646 L 91.902399 19.023646 C 91.873017 19.37837 91.853545 19.729734 91.849689 20.076294 L 90.110261 20.076294 C 90.072206 19.905414 90.045148 19.730919 90.045148 19.548678 C 90.045148 19.367352 90.072053 19.193701 90.109744 19.023646 z M 102.51829 20.543966 A 0.98112071 0.90880978 0 0 0 101.53695 21.452955 A 0.98112071 0.90880978 0 0 0 102.51829 22.361426 A 0.98112071 0.90880978 0 0 0 103.49911 21.452955 A 0.98112071 0.90880978 0 0 0 102.51829 20.543966 z M 90.290611 20.627165 L 91.855891 20.627165 C 91.88032 21.30466 91.969049 21.96252 92.143728 22.595004 C 91.931119 22.459045 91.673022 22.277128 91.386669 22.025529 C 90.958791 21.649589 90.543072 21.177381 90.290611 20.627165 z M 134.27036 22.162472 C 134.04195 22.162472 133.84221 22.248519 133.67091 22.419821 C 133.50776 22.582963 133.42596 22.782709 133.42596 23.019267 C 133.42596 23.247668 133.50776 23.447413 133.67091 23.618714 C 133.84221 23.781858 134.04195 23.86366 134.27036 23.86366 C 134.50692 23.86366 134.70666 23.781858 134.8698 23.618714 C 135.03295 23.447413 135.11475 23.247668 135.11475 23.019267 C 135.11475 22.782709 135.03295 22.582963 134.8698 22.419821 C 134.70666 22.248519 134.50692 22.162472 134.27036 22.162472 z M 157.33458 22.162472 C 157.10618 22.162472 156.90644 22.248519 156.73513 22.419821 C 156.57199 22.582963 156.49071 22.782709 156.49071 23.019267 C 156.49071 23.247668 156.57199 23.447413 156.73513 23.618714 C 156.90644 23.781858 157.10618 23.86366 157.33458 23.86366 C 157.57114 23.86366 157.7714 23.781858 157.93454 23.618714 C 158.09769 23.447413 158.17897 23.247668 158.17897 23.019267 C 158.17897 22.782709 158.09769 22.582963 157.93454 22.419821 C 157.7714 22.248519 157.57114 22.162472 157.33458 22.162472 z M 167.52362 33.9509 C 167.47142 33.951013 167.41624 33.95239 167.35723 33.955034 C 167.0155 33.970339 166.89157 33.994456 166.68491 34.087326 C 166.06542 34.365726 165.76698 35.006255 165.94077 35.684644 C 166.07969 36.226886 166.3365 36.485724 167.08076 36.833928 C 167.79728 37.169151 167.82921 37.186825 167.97941 37.326404 C 168.09734 37.435965 168.11842 37.483668 168.11842 37.641631 C 168.11842 37.789459 168.09513 37.851311 168.00473 37.941871 C 167.85117 38.095651 167.74778 38.128939 167.42492 38.128939 C 167.07555 38.128939 166.84995 38.023744 166.61567 37.751701 C 166.51972 37.640271 166.42568 37.549142 166.40638 37.54913 C 166.38705 37.549121 166.2128 37.642476 166.01932 37.756352 C 165.82584 37.870229 165.6508 37.963058 165.6302 37.963058 C 165.50284 37.963058 165.75927 38.348831 166.0648 38.616765 C 166.30344 38.826044 166.69372 38.993579 167.08334 39.053947 C 167.49303 39.117427 168.08604 39.037085 168.40832 38.874113 C 168.71096 38.721074 168.93523 38.49559 169.06358 38.215239 C 169.15225 38.021658 169.16793 37.926358 169.16693 37.611141 C 169.16542 37.289891 169.14863 37.202373 169.04963 36.993091 C 168.85475 36.581151 168.5409 36.337957 167.74583 35.983334 C 167.05047 35.673186 166.93813 35.576382 166.93813 35.286219 C 166.93813 35.127308 166.95861 35.080898 167.07352 34.978227 C 167.31445 34.762959 167.73724 34.83563 167.95305 35.129122 C 168.01754 35.216832 168.07982 35.261381 168.11842 35.247461 C 168.23741 35.20448 168.86004 34.795172 168.86204 34.758602 C 168.86639 34.679602 168.54415 34.307719 168.37318 34.194296 C 168.10261 34.014796 167.88905 33.950109 167.52362 33.9509 z M 163.97759 33.985523 L 163.97759 35.916154 L 163.97759 37.847303 L 163.83703 37.987863 C 163.71064 38.114245 163.67234 38.128939 163.46547 38.128939 C 163.26605 38.128939 163.21518 38.111537 163.08668 37.998715 C 163.00501 37.927009 162.91048 37.815091 162.87688 37.750151 C 162.84328 37.685209 162.79854 37.631812 162.77714 37.631812 C 162.7448 37.631812 162.00629 38.062163 161.95239 38.112403 C 161.91662 38.145738 162.10112 38.431139 162.2733 38.608497 C 162.48561 38.827187 162.71217 38.953159 163.02519 39.026559 C 163.3808 39.109956 163.92801 39.068529 164.21685 38.936642 C 164.48673 38.813407 164.73744 38.590031 164.8442 38.377503 C 165.02554 38.017392 165.03334 37.907271 165.03334 35.913571 L 165.03334 34.008777 L 164.50572 33.996892 L 163.97759 33.985523 z M 160.46979 37.835417 A 0.66145831 0.66145831 0 0 0 159.80833 38.496875 A 0.66145831 0.66145831 0 0 0 160.46979 39.158334 A 0.66145831 0.66145831 0 0 0 161.13125 38.496875 A 0.66145831 0.66145831 0 0 0 160.46979 37.835417 z " /></g></svg>
